<svg width="882" height="417" viewBox="0 0 882 417" fill="none" xmlns="http://www.w3.org/2000/svg">
<path d="M351.654 417L411.154 357.5V268.25L351.654 208.75L411.154 149.25V60L351.654 0.499972H60.1035L0.603516 60V149.25L60.1035 208.75L0.603516 268.25V357.5L60.1035 417H351.654ZM339.754 345.6H72.0035V244.45H339.754V345.6ZM339.754 173.05H72.0035V71.9H339.754V173.05ZM821.727 417L881.227 357.5V268.25L821.727 208.75L881.227 149.25V60L821.727 0.499972H530.177L470.677 60V149.25L530.177 208.75L470.677 268.25V357.5L530.177 417H821.727ZM809.827 345.6H542.077V244.45H809.827V345.6ZM809.827 173.05H542.077V71.9H809.827V173.05Z" fill="#B42A40"/>
</svg>
